<svg width="78" height="78" viewBox="0 0 78 78" fill="none" xmlns="http://www.w3.org/2000/svg">
<path d="M12.0919 21.1612C16.5932 16.2813 23.4045 13.8077 32.3333 13.8077H35.5417V22.852L32.9622 23.3685C28.5667 24.2476 25.5092 25.9769 23.873 28.5147C23.0192 29.8818 22.535 31.4472 22.4677 33.0577H32.3333C33.1842 33.0577 34.0003 33.3957 34.602 33.9974C35.2036 34.5991 35.5417 35.4151 35.5417 36.266V58.7243C35.5417 62.2631 32.6638 65.141 29.125 65.141H9.87499C9.02409 65.141 8.20804 64.803 7.60636 64.2013C7.00468 63.5996 6.66666 62.7836 6.66666 61.9327V45.891L6.67628 36.5259C6.64741 36.1698 6.03782 27.7318 12.0919 21.1612ZM64.4167 65.141H45.1667C44.3158 65.141 43.4997 64.803 42.898 64.2013C42.2963 63.5996 41.9583 62.7836 41.9583 61.9327V45.891L41.968 36.5259C41.9391 36.1698 41.3295 27.7318 47.3836 21.1612C51.8849 16.2813 58.6962 13.8077 67.625 13.8077H70.8333V22.852L68.2538 23.3685C63.8584 24.2476 60.8009 25.9769 59.1646 28.5147C58.3109 29.8818 57.8266 31.4472 57.7594 33.0577H67.625C68.4759 33.0577 69.292 33.3957 69.8936 33.9974C70.4953 34.5991 70.8333 35.4151 70.8333 36.266V58.7243C70.8333 62.2631 67.9555 65.141 64.4167 65.141Z" fill="#853EF8"/>
</svg>
