<svg width="39" height="40" viewBox="0 0 39 40" fill="none" xmlns="http://www.w3.org/2000/svg">
<path d="M19.7769 13.6393C16.2514 13.6393 13.3743 16.5165 13.3743 20.042C13.3743 23.5676 16.2514 26.4448 19.7769 26.4448C23.3024 26.4448 26.1795 23.5676 26.1795 20.042C26.1795 16.5165 23.3024 13.6393 19.7769 13.6393ZM38.9799 20.042C38.9799 17.3906 39.0039 14.7633 38.855 12.1167C38.7061 9.04261 38.0049 6.31437 35.757 4.06645C33.5043 1.81372 30.7809 1.11725 27.7069 0.968354C25.0555 0.819453 22.4282 0.84347 19.7817 0.84347C17.1303 0.84347 14.503 0.819453 11.8565 0.968354C8.78245 1.11725 6.05425 1.81853 3.80638 4.06645C1.5537 6.31917 0.85724 9.04261 0.708342 12.1167C0.559444 14.7681 0.58346 17.3955 0.58346 20.042C0.58346 22.6886 0.559444 25.3208 0.708342 27.9674C0.85724 31.0415 1.5585 33.7697 3.80638 36.0176C6.05906 38.2704 8.78245 38.9668 11.8565 39.1157C14.5078 39.2646 17.1351 39.2406 19.7817 39.2406C22.433 39.2406 25.0603 39.2646 27.7069 39.1157C30.7809 38.9668 33.5091 38.2656 35.757 36.0176C38.0097 33.7649 38.7061 31.0415 38.855 27.9674C39.0087 25.3208 38.9799 22.6934 38.9799 20.042ZM19.7769 29.8935C14.3253 29.8935 9.9256 25.4937 9.9256 20.042C9.9256 14.5904 14.3253 10.1906 19.7769 10.1906C25.2285 10.1906 29.6281 14.5904 29.6281 20.042C29.6281 25.4937 25.2285 29.8935 19.7769 29.8935ZM30.0316 12.0879C28.7588 12.0879 27.7309 11.06 27.7309 9.78711C27.7309 8.51425 28.7588 7.48636 30.0316 7.48636C31.3044 7.48636 32.3323 8.51425 32.3323 9.78711C32.3327 10.0894 32.2735 10.3887 32.158 10.668C32.0425 10.9473 31.873 11.2011 31.6593 11.4148C31.4456 11.6286 31.1918 11.798 30.9125 11.9135C30.6332 12.029 30.3339 12.0882 30.0316 12.0879Z" fill="#853EF8"/>
</svg>
