<svg width="25" height="25" viewBox="0 0 25 25" fill="none" xmlns="http://www.w3.org/2000/svg">
<path fill-rule="evenodd" clip-rule="evenodd" d="M1.56641 3.53575C1.56641 3.04829 1.76005 2.58078 2.10474 2.23609C2.44944 1.8914 2.91694 1.69775 3.40441 1.69775H21.7264C21.968 1.69736 22.2073 1.74462 22.4305 1.83682C22.6538 1.92902 22.8567 2.06436 23.0277 2.23509C23.1986 2.40582 23.3341 2.60858 23.4266 2.83176C23.519 3.05495 23.5665 3.29418 23.5664 3.53575V21.8578C23.5667 22.0994 23.5193 22.3387 23.427 22.562C23.3347 22.7853 23.1992 22.9882 23.0284 23.1591C22.8576 23.33 22.6548 23.4655 22.4315 23.5579C22.2083 23.6504 21.969 23.6979 21.7274 23.6978H3.40441C3.16295 23.6978 2.92386 23.6502 2.7008 23.5577C2.47774 23.4653 2.27508 23.3298 2.10439 23.1591C1.9337 22.9883 1.79834 22.7855 1.70603 22.5624C1.61372 22.3393 1.56628 22.1002 1.56641 21.8588V3.53575ZM10.2744 10.0858H13.2534V11.5818C13.6834 10.7218 14.7834 9.94775 16.4364 9.94775C19.6054 9.94775 20.3564 11.6608 20.3564 14.8038V20.6258H17.1494V15.5198C17.1494 13.7298 16.7194 12.7198 15.6274 12.7198C14.1124 12.7198 13.4824 13.8088 13.4824 15.5198V20.6258H10.2744V10.0858ZM4.77441 20.4888H7.98241V9.94775H4.77441V20.4878V20.4888ZM8.44141 6.50975C8.44746 6.78443 8.39858 7.05754 8.29765 7.31307C8.19671 7.5686 8.04576 7.80139 7.85364 7.99779C7.66152 8.19418 7.43211 8.35023 7.17886 8.45676C6.92562 8.56329 6.65365 8.61817 6.37891 8.61817C6.10417 8.61817 5.8322 8.56329 5.57895 8.45676C5.32571 8.35023 5.09629 8.19418 4.90418 7.99779C4.71206 7.80139 4.5611 7.5686 4.46017 7.31307C4.35923 7.05754 4.31036 6.78443 4.31641 6.50975C4.32828 5.97061 4.55079 5.45754 4.93629 5.08044C5.32179 4.70333 5.83963 4.49217 6.37891 4.49217C6.91818 4.49217 7.43602 4.70333 7.82152 5.08044C8.20702 5.45754 8.42953 5.97061 8.44141 6.50975Z" fill="#67C971"/>
</svg>
