<svg width="39" height="40" viewBox="0 0 39 40" fill="none" xmlns="http://www.w3.org/2000/svg">
<path d="M19.2293 0.973145C8.6253 0.973145 0.0292969 9.56915 0.0292969 20.1731C0.0292969 30.7771 8.6253 39.3731 19.2293 39.3731C29.8333 39.3731 38.4293 30.7771 38.4293 20.1731C38.4293 9.56915 29.8333 0.973145 19.2293 0.973145ZM14.5293 28.1311H10.6413V15.6191H14.5293V28.1311ZM12.5613 14.0831C11.3333 14.0831 10.5393 13.2131 10.5393 12.1371C10.5393 11.0391 11.3573 10.1951 12.6113 10.1951C13.8653 10.1951 14.6333 11.0391 14.6573 12.1371C14.6573 13.2131 13.8653 14.0831 12.5613 14.0831ZM28.7293 28.1311H24.8413V21.1971C24.8413 19.5831 24.2773 18.4871 22.8713 18.4871C21.7973 18.4871 21.1593 19.2291 20.8773 19.9431C20.7733 20.1971 20.7473 20.5571 20.7473 20.9151V28.1291H16.8573V19.6091C16.8573 18.0471 16.8073 16.7411 16.7553 15.6171H20.1333L20.3113 17.3551H20.3893C20.9013 16.5391 22.1553 15.3351 24.2533 15.3351C26.8113 15.3351 28.7293 17.0491 28.7293 20.7331V28.1311Z" fill="#853EF8"/>
</svg>
