<svg width="25" height="25" viewBox="0 0 25 25" fill="none" xmlns="http://www.w3.org/2000/svg">
<path fill-rule="evenodd" clip-rule="evenodd" d="M1.125 3.53575C1.125 3.04829 1.31865 2.58078 1.66334 2.23609C2.00803 1.8914 2.47553 1.69775 2.963 1.69775H21.285C21.5266 1.69736 21.7659 1.74462 21.9891 1.83682C22.2124 1.92902 22.4153 2.06436 22.5862 2.23509C22.7572 2.40582 22.8927 2.60858 22.9852 2.83176C23.0776 3.05495 23.1251 3.29418 23.125 3.53575V21.8578C23.1253 22.0994 23.0779 22.3387 22.9856 22.562C22.8933 22.7853 22.7578 22.9882 22.587 23.1591C22.4162 23.33 22.2134 23.4655 21.9901 23.5579C21.7669 23.6504 21.5276 23.6979 21.286 23.6978H2.963C2.72155 23.6978 2.48246 23.6502 2.2594 23.5577C2.03634 23.4653 1.83367 23.3298 1.66298 23.1591C1.4923 22.9883 1.35693 22.7855 1.26462 22.5624C1.17231 22.3393 1.12487 22.1002 1.125 21.8588V3.53575ZM9.833 10.0858H12.812V11.5818C13.242 10.7218 14.342 9.94775 15.995 9.94775C19.164 9.94775 19.915 11.6608 19.915 14.8038V20.6258H16.708V15.5198C16.708 13.7298 16.278 12.7198 15.186 12.7198C13.671 12.7198 13.041 13.8088 13.041 15.5198V20.6258H9.833V10.0858ZM4.333 20.4888H7.541V9.94775H4.333V20.4878V20.4888ZM8 6.50975C8.00605 6.78443 7.95717 7.05754 7.85624 7.31307C7.75531 7.5686 7.60435 7.80139 7.41223 7.99779C7.22011 8.19418 6.9907 8.35023 6.73746 8.45676C6.48421 8.56329 6.21224 8.61817 5.9375 8.61817C5.66276 8.61817 5.39079 8.56329 5.13755 8.45676C4.8843 8.35023 4.65489 8.19418 4.46277 7.99779C4.27065 7.80139 4.11969 7.5686 4.01876 7.31307C3.91783 7.05754 3.86895 6.78443 3.875 6.50975C3.88687 5.97061 4.10939 5.45754 4.49489 5.08044C4.88039 4.70333 5.39822 4.49217 5.9375 4.49217C6.47678 4.49217 6.99461 4.70333 7.38012 5.08044C7.76562 5.45754 7.98813 5.97061 8 6.50975Z" fill="#E38301"/>
</svg>
