<svg width="25" height="25" viewBox="0 0 25 25" fill="none" xmlns="http://www.w3.org/2000/svg">
<path fill-rule="evenodd" clip-rule="evenodd" d="M1.68359 3.53575C1.68359 3.04829 1.87724 2.58078 2.22193 2.23609C2.56662 1.8914 3.03413 1.69775 3.52159 1.69775H21.8436C22.0852 1.69736 22.3244 1.74462 22.5477 1.83682C22.771 1.92902 22.9739 2.06436 23.1448 2.23509C23.3158 2.40582 23.4513 2.60858 23.5438 2.83176C23.6362 3.05495 23.6837 3.29418 23.6836 3.53575V21.8578C23.6839 22.0994 23.6365 22.3387 23.5442 22.562C23.4518 22.7853 23.3164 22.9882 23.1456 23.1591C22.9748 23.33 22.772 23.4655 22.5487 23.5579C22.3255 23.6504 22.0862 23.6979 21.8446 23.6978H3.52159C3.28014 23.6978 3.04105 23.6502 2.81799 23.5577C2.59493 23.4653 2.39227 23.3298 2.22158 23.1591C2.05089 22.9883 1.91553 22.7855 1.82322 22.5624C1.73091 22.3393 1.68346 22.1002 1.68359 21.8588V3.53575ZM10.3916 10.0858H13.3706V11.5818C13.8006 10.7218 14.9006 9.94775 16.5536 9.94775C19.7226 9.94775 20.4736 11.6608 20.4736 14.8038V20.6258H17.2666V15.5198C17.2666 13.7298 16.8366 12.7198 15.7446 12.7198C14.2296 12.7198 13.5996 13.8088 13.5996 15.5198V20.6258H10.3916V10.0858ZM4.89159 20.4888H8.09959V9.94775H4.89159V20.4878V20.4888ZM8.55859 6.50975C8.56464 6.78443 8.51577 7.05754 8.41483 7.31307C8.3139 7.5686 8.16295 7.80139 7.97083 7.99779C7.77871 8.19418 7.54929 8.35023 7.29605 8.45676C7.04281 8.56329 6.77083 8.61817 6.49609 8.61817C6.22135 8.61817 5.94938 8.56329 5.69614 8.45676C5.4429 8.35023 5.21348 8.19418 5.02136 7.99779C4.82924 7.80139 4.67829 7.5686 4.57735 7.31307C4.47642 7.05754 4.42755 6.78443 4.43359 6.50975C4.44547 5.97061 4.66798 5.45754 5.05348 5.08044C5.43898 4.70333 5.95682 4.49217 6.49609 4.49217C7.03537 4.49217 7.55321 4.70333 7.93871 5.08044C8.32421 5.45754 8.54672 5.97061 8.55859 6.50975Z" fill="#853EF8"/>
</svg>
