<svg width="118" height="91" viewBox="0 0 118 91" fill="none" xmlns="http://www.w3.org/2000/svg">
<path d="M107.681 36.4985C107.681 66.147 83.6462 90.1818 53.9977 90.1818C24.3493 90.1818 0.314453 66.147 0.314453 36.4985C0.314453 6.85006 24.3493 19.5848 53.9977 19.5848C83.6462 19.5848 107.681 6.85006 107.681 36.4985Z" fill="#853EF8" fill-opacity="0.14"/>
<path fill-rule="evenodd" clip-rule="evenodd" d="M75.6796 1.03203C72.4438 1.43796 67.423 3.0819 66.9125 3.90257C66.7099 4.22855 66.7314 4.63187 67.0281 6.06343C67.9255 10.394 69.8644 12.5885 73.455 13.337C74.8709 13.6324 75.907 14.0451 76.1274 14.4017C76.1899 14.5027 75.9775 14.8069 75.6555 15.0777C75.0805 15.5616 74.5778 15.7197 70.4969 16.7018C67.6069 17.3973 66.0806 18.2132 64.0312 20.157C62.1131 21.9763 60.9963 23.7098 60.0212 26.3816C58.7992 29.7303 58.3402 32.0741 57.3053 40.2505C56.9206 43.2904 56.4292 46.8199 56.2132 48.094C55.8351 50.3236 54.6151 54.4942 54.1918 55.0043C54.0319 55.1969 53.7574 55.159 52.9417 54.8322C52.1002 54.4954 51.388 54.4043 49.2916 54.3658L46.6869 54.3179L46.5852 52.8527C46.5291 52.0468 46.3732 51.1943 46.2389 50.9583C45.8543 50.2823 44.8394 49.5185 44.026 49.2925C43.0356 49.0174 31.1039 49.0174 30.1135 49.2925C29.1584 49.5578 28.1744 50.3875 27.826 51.2214C27.6024 51.7563 27.5527 54.9667 27.5527 68.8491C27.5527 85.334 27.5642 85.8463 27.9478 86.6391C28.1847 87.1282 28.6828 87.6755 29.1903 88.0047L30.0372 88.5539H37.0177C43.576 88.5539 44.045 88.5299 44.7747 88.1578C45.7475 87.6615 46.3628 86.812 46.5513 85.7046L46.6974 84.8473L49.1966 84.6117C54.4198 84.1194 55.9812 84.3053 60.6926 85.9807C65.9227 87.8404 67.4449 88.2526 69.8397 88.4576C74.9206 88.8923 82.2575 85.2069 106.872 69.8559C114.612 65.0291 116.667 63.6588 117.065 63.0619C118.375 61.0924 117.636 59.0019 114.522 55.8727C112.935 54.2786 112.311 53.803 110.902 53.114C108.745 52.0597 106.688 51.6169 104.779 51.7958L103.361 51.9286L102.923 49.9551C102.389 47.5506 101.995 45.0445 101.588 41.4697C100.255 29.7592 98.9837 25.2622 95.9128 21.3976C93.8006 18.7395 91.4237 17.4017 87.0695 16.4197C82.0546 15.2891 81.283 14.1341 85.0582 13.4092C87.558 12.9291 89.6155 11.4707 90.6479 9.44708C91.0561 8.64685 91.7231 6.36938 91.9543 4.9855C92.143 3.85588 91.6149 3.36721 89.4206 2.64111C84.2537 0.931252 80.2345 0.460812 75.6796 1.03203ZM84.2541 3.31251C86.1589 3.67436 89.5901 4.72323 89.758 4.99472C89.9086 5.23835 89.4865 7.12152 89.0563 8.12491C88.5925 9.20725 87.5805 10.3445 86.6664 10.8107C86.2643 11.0159 85.3543 11.2868 84.644 11.4128C82.0343 11.8754 80.6477 12.957 80.6477 14.53C80.6477 16.3468 82.3886 17.4871 86.4068 18.3023C89.8207 18.9949 91.5125 19.8343 93.4876 21.814C96.8554 25.1898 98.1023 29.1549 99.4795 40.8687C99.9808 45.1311 100.592 48.9062 101.333 52.3169C101.363 52.4532 98.0454 54.1183 93.5708 56.2133L85.7568 59.8718L85.1577 59.1359C83.8574 57.5387 82.5619 56.4335 81.279 55.8266C79.0224 54.7591 77.8793 54.8144 69.3274 56.4038C61.0803 57.9368 60.562 57.9598 57.8607 56.9105C56.9535 56.5583 56.1689 56.2013 56.1168 56.1171C56.0649 56.033 56.2514 55.397 56.5315 54.704C57.6534 51.9266 58.3937 48.1042 59.3085 40.3678C59.9845 34.6509 60.3027 32.7025 61.0055 29.9764C62.0202 26.0409 62.9296 24.1872 64.855 22.129C66.865 19.9801 69.0143 18.8731 72.2647 18.3121C75.5411 17.7467 77.3456 16.7832 77.9825 15.2589C78.7395 13.4474 76.9885 11.8882 73.5349 11.2984C71.8666 11.0135 70.6842 10.0882 69.8179 8.39019C69.3829 7.53746 68.7907 5.22473 68.9439 4.97669C69.2288 4.51566 73.9423 3.32193 77.0412 2.92602C78.3347 2.76072 82.5342 2.98573 84.2541 3.31251ZM77.356 26.7576C77.1586 26.9552 77.0412 27.4258 77.0412 28.0193V28.9662L75.7122 29.1938C74.1731 29.4575 73.1659 30.2443 72.8329 31.443C72.563 32.4141 72.5818 35.8463 72.8615 36.6814C73.4544 38.4519 74.3973 38.8651 77.8453 38.8651C80.3601 38.8651 80.4854 38.8849 80.9572 39.357C81.4074 39.807 81.4491 40.0031 81.4491 41.6741C81.4491 43.408 81.2614 44.1926 80.7679 44.5222C80.4315 44.7468 75.6646 44.7035 75.2316 44.4717C75.0222 44.3597 74.7545 43.9097 74.6365 43.4719C74.3779 42.5116 73.6622 42.2036 73.026 42.7793C72.5384 43.2207 72.5356 43.7394 73.015 44.7955C73.5349 45.9403 74.3925 46.4945 75.8477 46.6266L77.0412 46.7347V47.8976C77.0412 48.8724 77.1133 49.1112 77.4866 49.3725C78.0596 49.774 78.1616 49.7662 78.6441 49.2837C78.9476 48.9802 79.0448 48.6159 79.0448 47.781V46.679L79.8963 46.6746C81.1273 46.6682 82.3008 46.0668 82.8706 45.1499C83.315 44.4352 83.3525 44.1726 83.3525 41.7703C83.3525 39.368 83.315 39.1053 82.8706 38.3906C82.0912 37.1366 81.2439 36.8711 78.0043 36.8659C74.582 36.8605 74.6369 36.9082 74.6369 33.9427C74.6369 31.1729 74.5698 31.2234 78.158 31.2957L80.9336 31.3516L81.2237 31.9527C81.3832 32.2833 81.5759 32.689 81.6519 32.8543C81.728 33.0196 82.074 33.1831 82.421 33.2176C82.9348 33.2687 83.0866 33.1897 83.2373 32.7934C83.4901 32.1284 83.1894 30.9233 82.618 30.3114C81.968 29.6155 81.3211 29.3182 80.0967 29.1523L79.0448 29.0099V28.058C79.0448 26.6751 78.1374 25.9764 77.356 26.7576ZM44.0552 51.5023L44.5832 51.9174V68.8333C44.5832 85.4818 44.5768 85.7553 44.1825 86.1496C43.7978 86.5343 43.5147 86.5503 37.1327 86.5503C30.5818 86.5503 30.477 86.5439 30.0199 86.1148L29.5563 85.679V68.8747V52.0705L30.0482 51.5788L30.5399 51.0869H37.0337C43.2997 51.0869 43.5459 51.1016 44.0552 51.5023ZM107.782 54.0887C109.601 54.5537 111.262 55.5082 112.912 57.0358C114.29 58.312 115.71 60.3389 115.71 61.0305C115.71 61.3008 115.425 61.8075 115.059 62.1878C114.306 62.97 96.8234 73.8637 89.2631 78.2615C80.5499 83.3302 76.0653 85.4754 72.56 86.2518C69.9073 86.8395 68.2657 86.5345 61.8913 84.2697C56.3124 82.2875 54.9433 82.127 48.2397 82.6692L46.5868 82.8028V69.676V56.5491L47.3381 56.4249C48.6823 56.2027 50.6975 56.2892 51.8097 56.6168C52.4084 56.7931 54.005 57.4259 55.3578 58.0229C58.0481 59.2101 59.7709 59.6951 61.3131 59.6989C61.8641 59.7003 65.5607 59.1161 69.5278 58.4006C73.5834 57.6693 77.3107 57.1003 78.043 57.1007C80.5565 57.1025 82.4767 58.5358 84.4833 61.9089C85.6031 63.7914 85.6101 63.8131 85.212 64.1605C84.5188 64.7658 77.8695 68.0202 74.9375 69.1893C73.3947 69.8044 70.9153 70.6315 69.4276 71.027C67.9399 71.4227 66.5324 71.8238 66.2998 71.9186C65.714 72.1568 65.5815 72.833 66.0155 73.369C66.3625 73.7975 66.414 73.8027 67.75 73.5453C69.9634 73.1189 75.2951 71.2846 78.5439 69.8322C83.0113 67.8349 87.8427 65.1529 87.9834 64.5921C88.0603 64.2859 87.8666 63.7458 87.3849 62.9241L86.6726 61.7087L87.2787 61.3954C88.6323 60.6955 101.256 54.812 102.186 54.4475C104.293 53.6223 105.624 53.5367 107.782 54.0887Z" fill="#853EF8"/>
</svg>
