<svg width="59" height="60" viewBox="0 0 59 60" fill="none" xmlns="http://www.w3.org/2000/svg">
<circle cx="29.5842" cy="29.8196" r="29.3733" fill="#FF118D"/>
<path d="M44.3649 20.5801C44.9451 21.585 44.8673 22.7816 44.1612 23.7026L28.6573 43.9342C28.0179 44.7684 26.9651 45.1938 25.8885 44.9871C24.8343 44.7844 23.9985 44.0159 23.7084 42.9824L21.4143 34.8178L21.1754 33.9685L20.5594 33.337L14.6357 27.2681C13.8857 26.5001 13.6381 25.3919 13.9896 24.3776C14.3375 23.3749 15.2101 22.6473 16.2859 22.5063L41.5589 19.1953C42.7096 19.0443 43.7847 19.5752 44.3649 20.5801Z" fill="white"/>
<path d="M21.415 34.8176L23.709 42.9822C23.9991 44.0158 24.8349 44.7842 25.8892 44.987C26.9657 45.1937 28.0185 44.7683 28.6579 43.934L44.1618 23.7024C44.8679 22.7814 44.9457 21.5848 44.3655 20.5799L21.1761 33.9683L21.415 34.8176Z" fill="white"/>
<path d="M30.6112 28.5202C30.8471 28.9289 30.7075 29.4518 30.2983 29.688L21.4135 34.8177L21.1746 33.9684L20.5586 33.3369L29.4434 28.2073C29.8525 27.9711 30.3752 28.1116 30.6112 28.5202Z" fill="#FF118D"/>
<path d="M21.4157 34.8175L30.3005 29.6879C30.7096 29.4517 30.8494 28.9288 30.6134 28.5201L21.1768 33.9683L21.4157 34.8175Z" fill="#FF118D"/>
</svg>
