<svg width="113" height="91" viewBox="0 0 113 91" fill="none" xmlns="http://www.w3.org/2000/svg">
<path d="M107.646 36.4985C107.646 66.147 83.611 90.1818 53.9626 90.1818C24.3141 90.1818 0.279297 66.147 0.279297 36.4985C0.279297 6.85006 24.3141 19.5848 53.9626 19.5848C83.611 19.5848 107.646 6.85006 107.646 36.4985Z" fill="#853EF8" fill-opacity="0.14"/>
<path fill-rule="evenodd" clip-rule="evenodd" d="M33.1041 1.11243C32.5296 1.29668 31.7737 1.62407 31.4246 1.83987C30.3839 2.48302 29.0917 4.00669 28.4652 5.32933L27.8777 6.56933L27.8289 35.5113C27.7754 67.0848 27.7309 65.6277 28.8049 67.4604C29.9512 69.4164 32.1714 70.8941 34.4612 71.2252C35.1009 71.3176 41.7869 71.3951 49.3188 71.3971L63.0134 71.4008L59.0953 79.2396L55.1772 87.0784L51.4873 87.081C49.4579 87.0823 47.6134 87.1328 47.3886 87.1931C46.8937 87.3257 46.6695 87.9181 46.9749 88.2861C47.1669 88.5176 50.2936 88.5539 70.0228 88.5539C89.752 88.5539 92.8787 88.5176 93.0707 88.2861C93.3761 87.9181 93.1519 87.3257 92.657 87.1931C92.4322 87.1328 90.5877 87.0823 88.5583 87.081L84.8684 87.0784L80.9503 79.2396L77.0322 71.4008L90.7268 71.3971C98.2587 71.3951 104.945 71.3176 105.584 71.2252C107.874 70.8941 110.094 69.4164 111.241 67.4604C112.315 65.6277 112.27 67.0858 112.217 35.5017L112.168 6.55015L111.476 5.14968C110.618 3.41427 109.082 1.91401 107.517 1.2823L106.45 0.851624L70.2995 0.814552C35.8154 0.779139 34.1006 0.792788 33.1041 1.11243ZM107.38 2.81796C108.511 3.41482 109.756 4.72878 110.294 5.89132L110.692 6.75378V35.9879V65.222L110.206 66.2364C109.351 68.0177 107.982 69.15 106.089 69.6405C105.116 69.8924 100.949 69.9252 70.0228 69.9252C39.0966 69.9252 34.9292 69.8924 33.957 69.6405C32.0635 69.15 30.6942 68.0177 29.8398 66.2364L29.3533 65.222V35.9879V6.75378L29.7519 5.89132C30.4808 4.31397 32.0757 2.90188 33.6877 2.40647C33.9413 2.32845 50.4166 2.27884 70.2995 2.29599L106.45 2.32716L107.38 2.81796ZM35.0157 7.8051C34.6942 8.12658 34.6942 53.5204 35.0157 53.8419C35.3377 54.1639 104.708 54.1639 105.03 53.8419C105.351 53.5204 105.351 8.12658 105.03 7.8051C104.708 7.48306 35.3377 7.48306 35.0157 7.8051ZM103.96 30.8235V52.5877H70.0228H36.0854V30.8235V9.05931H70.0228H103.96V30.8235ZM39.3593 11.6563C39.061 11.83 39.0367 12.3593 39.0393 18.6134C39.0409 22.3364 39.1086 25.4872 39.19 25.6152C39.3056 25.7974 40.8595 25.8375 46.3343 25.7997L53.3308 25.7513L53.3795 18.8347C53.4241 12.4962 53.4018 11.899 53.1137 11.6876C52.7112 11.3927 39.8623 11.3634 39.3593 11.6563ZM51.9475 17.2657V21.599L51.0714 20.9298C50.3838 20.4047 49.4826 19.8868 48.8643 19.6612C48.8426 19.6531 49.0355 19.2357 49.2933 18.7335C50.8107 15.7771 47.611 12.6722 44.6198 14.1982C42.8849 15.0832 42.2901 17.2345 43.2966 18.9836C43.4897 19.3191 43.6476 19.624 43.6476 19.661C43.6476 19.6981 43.36 19.8234 43.0085 19.9394C42.6569 20.0554 41.9514 20.5259 41.4407 20.9852L40.512 21.8199V17.3764V12.9326H46.2298H51.9475V17.2657ZM59.7309 13.8917C59.5618 14.0608 59.5096 18.4891 59.5096 32.6983C59.5096 50.8844 59.5173 51.2877 59.8663 51.4746C60.1053 51.6024 66.2275 51.6655 78.4149 51.6655C90.6023 51.6655 96.7245 51.6024 96.9635 51.4746C97.3127 51.2877 97.3203 50.8831 97.3203 32.589C97.3203 15.712 97.2919 13.8834 97.0285 13.7823C96.868 13.7207 88.4602 13.6704 78.3445 13.6704C64.2854 13.6704 59.9001 13.7226 59.7309 13.8917ZM47.0535 15.408C47.765 15.7053 48.2586 16.5082 48.2586 17.3684C48.2586 18.2602 47.2322 19.2036 46.2624 19.2036C44.1625 19.2036 43.4639 16.3807 45.3356 15.4585C46.0968 15.0836 46.265 15.0786 47.0535 15.408ZM95.984 32.6218L95.9369 50.0977L78.461 50.1447L60.9851 50.1918V32.6688V15.1459H78.5081H96.031L95.984 32.6218ZM76.8341 20.378C74.9352 20.89 73.3145 22.2905 72.4558 24.1614C71.7757 25.6427 71.7792 27.7118 72.4641 29.2037C73.8356 32.1921 77.1074 33.8024 80.0876 32.9562C84.4364 31.7214 86.3105 26.7966 83.8396 23.0963C82.2998 20.7904 79.4319 19.6776 76.8341 20.378ZM49.1447 21.4374C50.0923 21.9194 50.5191 22.2739 50.9791 22.9609C52.0989 24.6336 52.3412 24.5525 46.2298 24.5525C41.522 24.5525 40.8809 24.5181 40.8809 24.2666C40.8809 23.7898 41.3651 23.0214 42.1108 22.3148C43.391 21.1015 44.657 20.6554 46.5625 20.7456C47.6516 20.7972 48.1459 20.9296 49.1447 21.4374ZM80.6529 22.12C85.2087 24.4462 83.9436 31.237 78.8688 31.6972C77.3112 31.8385 76.0755 31.3669 74.8856 30.177C72.8326 28.124 72.8322 25.2235 74.8847 23.171C75.446 22.6097 76.1845 22.0876 76.6677 21.9105C77.7753 21.5044 79.6396 21.6025 80.6529 22.12ZM71.6658 31.9099C69.2594 32.8514 67.1853 35.1249 66.4312 37.6479C66.035 38.9731 65.816 44.0336 66.1296 44.6194L66.3469 45.0255H78.3845C87.5011 45.0255 90.4758 44.9719 90.6434 44.8042C90.9205 44.5272 90.9474 39.9879 90.6805 38.549C90.2115 36.0198 88.2518 33.4013 86.006 32.3035C84.0764 31.3602 83.9023 31.3739 82.8895 32.5477C81.6532 33.981 80.3462 34.5939 78.5127 34.5999C76.4934 34.6066 74.8487 33.8067 73.8149 32.3151C73.224 31.4622 72.9447 31.4095 71.6658 31.9099ZM73.4339 34.0405C76.2581 36.7854 80.5545 36.7766 83.5013 34.0201C84.4812 33.1036 84.6756 33.0921 85.8848 33.8804C88.4558 35.5565 89.3892 37.5726 89.3892 41.4498V43.7374L78.461 43.6898L67.5328 43.6422L67.4775 41.89C67.3779 38.7305 67.9543 36.823 69.5233 35.1208C70.2609 34.3207 71.9004 33.2266 72.3674 33.2229C72.4903 33.222 72.9702 33.5899 73.4339 34.0405ZM68.7869 61.618C67.6221 62.3281 67.2877 63.8368 68.0456 64.9615C68.553 65.7142 69.1583 66.0466 70.0228 66.0466C70.8873 66.0466 71.4926 65.7142 72 64.9615C73.4082 62.8718 70.941 60.3044 68.7869 61.618ZM79.384 79.2396L83.3021 87.0784H70.0228H56.7435L60.6616 79.2396L64.5797 71.4008H70.0228H75.4659L79.384 79.2396Z" fill="#853EF8"/>
</svg>
