<svg width="125" height="91" viewBox="0 0 125 91" fill="none" xmlns="http://www.w3.org/2000/svg">
<path d="M107.999 36.4985C107.999 66.147 83.9646 90.1818 54.3161 90.1818C24.6676 90.1818 0.632812 66.147 0.632812 36.4985C0.632812 6.85006 24.6676 19.5848 54.3161 19.5848C83.9646 19.5848 107.999 6.85006 107.999 36.4985Z" fill="#853EF8" fill-opacity="0.14"/>
<path fill-rule="evenodd" clip-rule="evenodd" d="M75.5748 0.899184C61.2068 2.28516 48.6273 10.3651 41.3914 22.8557C38.6503 27.5874 36.8436 32.9218 35.93 38.9802C35.5292 41.6381 35.5659 48.0399 35.9975 50.7768C37.0348 57.3531 39.0003 62.7028 42.3354 68.0274C46.5829 74.8088 52.5831 80.2459 59.849 83.8978C65.8787 86.9284 71.5496 88.354 78.2962 88.5351C85.3819 88.7253 91.4822 87.4821 98.0535 84.5089L99.6901 83.7685L100.141 84.0318C102.968 85.6824 104.89 86.2537 108.025 86.3744C110.578 86.4729 111.988 86.2937 114.053 85.6085C123.143 82.592 127.425 72.6698 123.235 64.3285C122.618 63.0997 121.796 61.8953 121.006 61.0637L120.513 60.5444L121.014 59.1046C123.409 52.2255 124.034 44.6843 122.819 37.3245C121.843 31.4108 119.507 25.5166 116.144 20.4784C114.359 17.8055 112.877 15.9895 110.672 13.7748C103.833 6.90423 95.365 2.62349 85.7632 1.18208C83.4989 0.842174 77.8054 0.684096 75.5748 0.899184ZM85.6193 3.90149C91.6911 4.84924 97.2624 7.00746 102.275 10.3536C104.799 12.0389 106.045 13.0504 108.272 15.2207C115.131 21.9077 119.312 30.4014 120.465 39.9879C120.769 42.5152 120.691 48.383 120.324 50.6416C119.821 53.7339 118.55 58.4878 118.226 58.4878C118.151 58.4878 117.745 58.2673 117.324 57.9979C116.902 57.7284 116.318 57.4078 116.025 57.2854C115.732 57.163 115.493 56.9887 115.493 56.898C115.493 56.8074 115.685 56.1076 115.92 55.343C117.499 50.2113 117.869 43.9499 116.922 38.361C115.871 32.1538 113.091 25.9571 109.094 20.9122C107.898 19.4032 104.745 16.2799 103.095 14.9709C98.5208 11.3415 92.7376 8.64207 87.1427 7.52531C84.2559 6.94915 82.7057 6.80331 79.4661 6.80331C73.0496 6.80331 67.5841 8.13084 61.9709 11.0528C58.4799 12.8701 55.6569 14.9551 52.7171 17.8878C49.819 20.7787 47.7095 23.6353 45.8865 27.1372C42.9971 32.6879 41.6267 38.2586 41.6097 44.5229C41.5988 48.5365 42.0888 52.0299 43.1571 55.5542C47.142 68.7003 57.9548 78.7558 71.2945 81.7205C78.8453 83.3986 87.0487 82.6808 94.0464 79.7295L95.1603 79.2597L96.1959 80.5478C96.7654 81.2562 97.2001 81.8672 97.1616 81.9057C97.1233 81.944 96.5086 82.2269 95.7957 82.5342C92.7062 83.8662 89.2029 84.8714 85.6913 85.4338C83.859 85.727 83.102 85.7678 79.5006 85.7666C75.1338 85.765 73.9573 85.6506 70.5026 84.891C62.8378 83.2057 55.5003 79.0842 49.9761 73.3612C44.1859 67.3622 40.4817 60.1956 38.9777 52.0813C37.9656 46.6218 38.144 40.3955 39.4685 34.9491C42.1048 24.1084 49.1327 14.6978 58.8195 9.03798C63.4901 6.30893 69.1789 4.38379 74.3178 3.79309C75.07 3.70656 75.8798 3.60924 76.1174 3.57656C76.3549 3.54388 78.1689 3.53798 80.1485 3.56331C82.8685 3.59815 84.2049 3.68065 85.6193 3.90149ZM83.7477 9.69851C89.8226 10.4414 95.7155 12.835 100.808 16.6281C102.615 17.9742 106.248 21.6225 107.61 23.4591C114.481 32.7239 116.479 43.9947 113.2 54.9966C113.029 55.5708 112.838 56.0404 112.777 56.0404C112.715 56.0404 111.989 55.9367 111.163 55.8102C106.049 55.026 100.53 56.9184 96.9919 60.6695C93.2458 64.6404 91.8894 70.0876 93.3763 75.1881C93.5725 75.8612 93.7732 76.5152 93.8221 76.6415C93.8928 76.824 93.6007 76.9935 92.4013 77.4654C82.1029 81.5184 70.4472 80.4753 61.0448 74.6592C57.8094 72.6579 54.1598 69.408 51.8838 66.5015C45.5343 58.3928 43.0291 48.2795 44.883 38.2389C45.8703 32.8916 48.0613 27.9427 51.465 23.3723C52.854 21.5072 56.458 17.931 58.4023 16.4888C64.8938 11.6733 72.6315 9.22284 80.5084 9.48745C81.6566 9.52618 83.1142 9.62106 83.7477 9.69851ZM78.6257 11.8311C78.209 12.248 78.2049 12.2678 78.2049 13.9253C78.2049 15.5098 78.2236 15.6172 78.5584 15.9518C79.0447 16.4382 79.952 16.4428 80.4334 15.9614C80.8701 15.5248 80.9936 14.8575 80.9086 13.3919C80.8456 12.3027 80.8112 12.1995 80.3846 11.8183C79.774 11.2728 79.1797 11.2771 78.6257 11.8311ZM78.6257 18.3097L78.2049 18.7305L78.2025 29.1433L78.2 39.556L77.3747 39.9111C76.3747 40.3411 75.2349 41.4363 74.7472 42.4354C74.4472 43.0503 74.3955 43.3653 74.3928 44.5949C74.3902 45.8568 74.4371 46.1355 74.7727 46.8516C75.803 49.0491 78.0363 50.2292 80.4014 49.8256C82.0911 49.5372 83.4241 48.5209 84.2405 46.8984L84.6753 46.0346L90.546 46.0107C99.6433 45.9737 98.8967 46.0022 99.2207 45.6783C99.7856 45.1133 99.7741 44.2023 99.1953 43.6632C98.8894 43.3781 98.7153 43.3712 91.781 43.3712H84.6799L84.3316 42.5837C83.8698 41.5395 82.8688 40.4946 81.8446 39.9874C81.3868 39.7608 80.9944 39.564 80.9726 39.55C80.9507 39.536 80.9353 34.96 80.9383 29.3811C80.9422 22.2486 80.896 19.1003 80.7825 18.7748C80.4655 17.8654 79.3177 17.6178 78.6257 18.3097ZM80.7963 42.5294C82.2206 43.3361 82.4714 45.2507 81.3096 46.4471C80.8745 46.8951 80.0781 47.2553 79.5173 47.2575C78.9834 47.2596 78.1391 46.8689 77.6992 46.416C76.7213 45.4092 76.7747 43.7949 77.8181 42.8191C78.6303 42.0595 79.7707 41.9485 80.7963 42.5294ZM46.7511 43.6951C46.5286 43.8883 46.3441 44.2341 46.2934 44.5523C46.2201 45.013 46.2682 45.145 46.6471 45.5241C47.0855 45.9625 47.0861 45.9626 48.759 45.9626C50.3435 45.9626 50.4509 45.9439 50.7855 45.6092C51.2766 45.1181 51.2766 44.2157 50.7855 43.7246C50.4513 43.3903 50.3424 43.3712 48.778 43.3712C47.2691 43.3712 47.0911 43.3995 46.7511 43.6951ZM108.242 43.7507C107.734 44.259 107.722 45.0496 108.215 45.5817C108.56 45.953 108.612 45.9626 110.303 45.9626C111.838 45.9626 112.07 45.9299 112.322 45.6783C112.887 45.1133 112.875 44.2023 112.296 43.6632C112.019 43.4044 111.792 43.3712 110.302 43.3712C108.678 43.3712 108.609 43.384 108.242 43.7507ZM112.253 58.7709C113.823 59.1767 116.12 60.3302 117.429 61.3708C119.369 62.9123 121.117 65.5581 121.755 67.9177C122.085 69.1387 122.199 71.8091 121.975 73.078C121.538 75.5503 120.417 77.7313 118.621 79.6026C114.621 83.7688 108.412 84.9415 103.156 82.5237C100.32 81.2194 98.3288 79.3694 96.9365 76.7464C94.4376 72.0388 95.2195 66.5107 98.936 62.6088C101.05 60.3891 103.365 59.141 106.471 58.5469C107.903 58.2729 110.754 58.3833 112.253 58.7709ZM100.573 69.9724C99.8145 70.5866 99.8016 71.4663 100.542 72.0889L100.974 72.4527H108.73C114.437 72.4527 116.587 72.4072 116.864 72.2807C117.697 71.9012 117.887 70.7938 117.231 70.1381L116.811 69.7173L108.845 69.7205C101.516 69.7235 100.855 69.7435 100.573 69.9724ZM78.5859 73.3816C78.2149 73.7256 78.2049 73.7795 78.2049 75.4563V77.1781L78.6479 77.5508C79.1637 77.9848 79.6481 78.0229 80.2365 77.6753C80.7555 77.3687 80.9384 76.7672 80.9395 75.3635C80.9405 74.2083 80.6892 73.4235 80.2421 73.1841C79.7327 72.9116 78.9986 72.9991 78.5859 73.3816Z" fill="#853EF8"/>
</svg>
