<svg width="40" height="40" viewBox="0 0 40 40" fill="none" xmlns="http://www.w3.org/2000/svg">
<path d="M20.0066 0.842041C9.40378 0.842041 0.806641 9.43918 0.806641 20.042C0.806641 30.6449 9.40378 39.242 20.0066 39.242C30.6095 39.242 39.2066 30.6449 39.2066 20.042C39.2066 9.43918 30.6095 0.842041 20.0066 0.842041ZM29.2338 15.3149C29.2466 15.5163 29.2466 15.7263 29.2466 15.932C29.2466 22.2235 24.4552 29.4706 15.6995 29.4706C12.9995 29.4706 10.4966 28.6863 8.38807 27.3363C8.77378 27.3792 9.14236 27.3963 9.53664 27.3963C11.7652 27.3963 13.8138 26.642 15.4466 25.3649C13.3552 25.322 11.5981 23.9506 10.9981 22.0649C11.7309 22.172 12.3909 22.172 13.1452 21.9792C12.0683 21.7604 11.1004 21.1755 10.4059 20.324C9.71132 19.4724 9.33301 18.4066 9.33521 17.3078V17.2478C9.96521 17.6035 10.7066 17.822 11.4824 17.852C10.8303 17.4174 10.2955 16.8287 9.9254 16.1379C9.55535 15.4471 9.36146 14.6757 9.36093 13.892C9.36093 13.0049 9.59236 12.1949 10.0081 11.492C11.2034 12.9635 12.6949 14.1669 14.3858 15.0242C16.0766 15.8814 17.929 16.3733 19.8224 16.4678C19.1495 13.232 21.5666 10.6135 24.4724 10.6135C25.8438 10.6135 27.0781 11.1878 27.9481 12.1135C29.0238 11.912 30.0524 11.5092 30.9695 10.9692C30.6138 12.0706 29.8681 13.0006 28.8781 13.5878C29.8381 13.4849 30.7638 13.2192 31.6209 12.8463C30.9738 13.7978 30.1638 14.642 29.2338 15.3149Z" fill="#853EF8"/>
</svg>
