<svg width="55" height="40" viewBox="0 0 55 40" fill="none" xmlns="http://www.w3.org/2000/svg">
<path fill-rule="evenodd" clip-rule="evenodd" d="M10.8612 1.04572C4.66861 1.53218 1.70066 3.40126 0.700911 7.44434C0.235213 9.32822 0.210938 9.90869 0.210938 19.1881C0.210938 28.6927 0.237661 29.2495 0.798331 31.4321C2.06575 36.3665 5.26932 38.5903 11.9226 39.1543C12.8791 39.2354 18.0267 39.2589 28.5851 39.2303C44.8121 39.1863 44.4045 39.1985 46.7382 38.6861C50.8001 37.7943 53.0974 35.5446 54.0297 31.5458C54.5644 29.2527 54.5943 28.7138 54.6421 20.5189C54.6999 10.5786 54.5613 8.46794 53.7049 6.25199C52.5495 3.26253 50.3073 1.8978 45.3541 1.16944C44.321 1.0175 42.2874 0.994613 28.106 0.975661C19.2637 0.963737 11.5035 0.995358 10.8612 1.04572ZM23.3083 12.2255C23.7956 12.3607 34.8576 18.0797 35.3727 18.4626C36.2424 19.1093 36.2979 20.3748 35.4892 21.1224C35.3518 21.2493 32.6044 22.7312 29.3837 24.4153C24.3862 27.0286 23.4498 27.4831 22.9955 27.5161C22.2762 27.5684 21.6991 27.2398 21.3718 26.5913L21.1322 26.1167V19.9498C21.1322 15.6308 21.1688 13.661 21.2539 13.3765C21.4032 12.8786 21.8249 12.4585 22.3712 12.2638C22.8777 12.0832 22.8066 12.0861 23.3083 12.2255Z" fill="#853EF8"/>
</svg>
